<svg width="92" height="30" viewBox="0 0 92 30" fill="none" xmlns="http://www.w3.org/2000/svg">
<path d="M0.72 16.904V13.576L14.48 5.864V9.256L3.888 15.112V15.368L14.48 21.192V24.616L0.72 16.904ZM32.9635 2.664V19.016C32.9635 19.976 32.7928 20.8507 32.4515 21.64C32.1315 22.4293 31.6622 23.1013 31.0435 23.656C30.4462 24.2107 29.7208 24.6373 28.8675 24.936C28.0142 25.2347 27.0648 25.384 26.0195 25.384C24.0568 25.384 22.4888 24.8933 21.3155 23.912C20.1635 22.9307 19.4168 21.576 19.0755 19.848L22.4675 19.144C22.6595 20.0613 23.0222 20.8293 23.5555 21.448C24.0888 22.0667 24.9208 22.376 26.0515 22.376C27.0968 22.376 27.9075 22.0667 28.4835 21.448C29.0808 20.808 29.3795 19.8373 29.3795 18.536V5.672H21.6035V2.664H32.9635ZM46.615 25.384C43.7777 25.384 41.6657 24.3813 40.279 22.376C38.9137 20.3707 38.231 17.5227 38.231 13.832C38.231 10.1413 38.9137 7.29333 40.279 5.288C41.6657 3.28267 43.7777 2.28 46.615 2.28C47.703 2.28 48.6417 2.42933 49.431 2.728C50.2417 3.00533 50.935 3.4 51.511 3.912C52.087 4.40267 52.567 4.98933 52.951 5.672C53.3563 6.33333 53.687 7.048 53.943 7.816L50.711 8.904C50.5403 8.392 50.3483 7.912 50.135 7.464C49.9217 7.016 49.655 6.632 49.335 6.312C49.015 5.992 48.631 5.736 48.183 5.544C47.7563 5.352 47.223 5.256 46.583 5.256C45.0043 5.256 43.8523 5.864 43.127 7.08C42.4017 8.27467 42.039 9.896 42.039 11.944V15.72C42.039 17.768 42.4017 19.4 43.127 20.616C43.8523 21.8107 45.0043 22.408 46.583 22.408C47.223 22.408 47.7563 22.312 48.183 22.12C48.631 21.928 49.015 21.672 49.335 21.352C49.655 21.032 49.9217 20.648 50.135 20.2C50.3483 19.752 50.5403 19.272 50.711 18.76L53.943 19.848C53.687 20.616 53.3563 21.3413 52.951 22.024C52.567 22.6853 52.087 23.272 51.511 23.784C50.935 24.2747 50.2417 24.6693 49.431 24.968C48.6417 25.2453 47.703 25.384 46.615 25.384ZM58.2185 29.416L69.0025 0.679998H72.1065L61.3225 29.416H58.2185ZM77.47 21.224L88.062 15.368V15.112L77.47 9.288V5.864L91.23 13.576V16.904L77.47 24.616V21.224Z" fill="#8A9A5B"/>
</svg>


