<svg width="22" height="22" viewBox="0 0 22 22" fill="none" xmlns="http://www.w3.org/2000/svg">
<g filter="url(#filter0_d_650_886)">
<path fill-rule="evenodd" clip-rule="evenodd" d="M4.58333 3.48988C4.58324 3.49564 4.58323 3.50139 4.5833 3.50715V10.5C4.5833 11.4638 5.36947 12.25 6.3333 12.25H15.6666C16.6305 12.25 17.4166 11.4638 17.4166 10.5V3.50721C17.4167 3.50141 17.4167 3.4956 17.4166 3.4898C17.4111 2.53063 16.6271 1.75 15.6666 1.75H6.3333C5.37284 1.75 4.58881 2.53067 4.58333 3.48988ZM5.81214 3.2398C5.90861 3.04904 6.10699 2.91667 6.3333 2.91667H15.6666C15.8929 2.91667 16.0913 3.04904 16.1878 3.2398L11 6.87128L5.81214 3.2398ZM16.25 4.62038V10.5C16.25 10.8195 15.9861 11.0833 15.6666 11.0833H6.3333C6.0138 11.0833 5.74997 10.8195 5.74997 10.5V4.62038L10.6654 8.06122C10.8663 8.20182 11.1336 8.20182 11.3345 8.06122L16.25 4.62038Z" fill="#8A9A5B"/>
</g>
<defs>
<filter id="filter0_d_650_886" x="0" y="0" width="22" height="22" filterUnits="userSpaceOnUse" color-interpolation-filters="sRGB">
<feFlood flood-opacity="0" result="BackgroundImageFix"/>
<feColorMatrix in="SourceAlpha" type="matrix" values="0 0 0 0 0 0 0 0 0 0 0 0 0 0 0 0 0 0 127 0" result="hardAlpha"/>
<feOffset dy="4"/>
<feGaussianBlur stdDeviation="2"/>
<feComposite in2="hardAlpha" operator="out"/>
<feColorMatrix type="matrix" values="0 0 0 0 0 0 0 0 0 0 0 0 0 0 0 0 0 0 0.25 0"/>
<feBlend mode="normal" in2="BackgroundImageFix" result="effect1_dropShadow_650_886"/>
<feBlend mode="normal" in="SourceGraphic" in2="effect1_dropShadow_650_886" result="shape"/>
</filter>
</defs>
</svg>
